<?xml version="1.0" encoding="UTF-8" standalone="no" ?>
<!DOCTYPE svg PUBLIC "-//W3C//DTD SVG 1.1//EN" "http://www.w3.org/Graphics/SVG/1.1/DTD/svg11.dtd">
<svg xmlns="http://www.w3.org/2000/svg" xmlns:xlink="http://www.w3.org/1999/xlink" version="1.1" width="50" height="50" viewBox="0 0 640 640" xml:space="preserve">
<desc>Created with Fabric.js 4.6.0</desc>
<defs>
</defs>
<g transform="matrix(0.91 0 0 0.92 320 320)" id="urA0BHTs4SNASh7wAhPsH"  >
<path style="stroke: none; stroke-width: 1; stroke-dasharray: none; stroke-linecap: butt; stroke-dashoffset: 0; stroke-linejoin: miter; stroke-miterlimit: 4; fill: rgb(248,248,242); fill-rule: nonzero; opacity: 1;" vector-effect="non-scaling-stroke"  transform=" translate(-250, -275)" d="M 245.07152 549.38158 C 242.97752 548.93299 217.29858 535.10144 173.69866 510.80274 C 136.15073999999998 489.94345999999996 83.55183999999998 460.6345 56.631889999999984 445.68165 C 29.789939999999984 430.72862 7.058989999999987 417.79373 6.127989999999983 416.97171 C 5.196989999999983 416.14835999999997 3.489999999999983 413.75636999999995 2.2499999999999827 411.58865999999995 L -1.7319479184152442e-14 407.70163999999994 L -1.7319479184152442e-14 274.9917499999999 L -1.7319479184152442e-14 142.2818599999999 L 1.8619999999999828 138.7675899999999 C 2.8709999999999827 136.8241799999999 4.9649899999999825 134.1320599999999 6.516989999999982 132.7118799999999 C 8.067989999999982 131.2916899999999 22.03295999999998 123.1418999999999 37.62692999999999 114.46988999999989 C 53.220899999999986 105.87271999999989 105.66378999999999 76.7131799999999 154.1517 49.647729999999896 C 237.78253 3.143389999999897 242.59252 0.526099999999893 247.01351 0.15234999999989896 C 249.6515 -0.14657000000010106 253.14249999999998 0.0028899999998989456 255.15949 0.5261099999998989 C 257.09849 0.9746999999998989 267.33947 6.209069999999898 277.89044 12.039499999999899 C 288.44142 17.9467499999999 340.57431 46.9556199999999 393.71621000000005 76.4130699999999 C 498.06000000000006 134.3561699999999 495.96501000000006 133.0864399999999 498.75800000000004 140.86147999999991 C 499.845 144.0768199999999 500.00000000000006 156.8609399999999 500.00000000000006 275.2906899999999 L 500.00000000000006 406.2056399999999 L 498.13800000000003 409.9431999999999 C 495.19001000000003 416.0737499999999 492.78501000000006 418.1676199999999 480.37204 424.97084999999987 C 465.32207000000005 433.27009999999984 298.1394 526.2040499999998 275.25345000000004 539.0639999999999 C 262.84047000000004 545.9420599999999 256.86649000000006 548.8582799999998 253.99649000000005 549.3824899999998 C 249.49750000000006 550.2058399999999 249.57450000000006 550.2058399999999 245.07551000000007 549.3824899999998 z M 318.15037 452.63439 C 355.2333 431.92478 398.52221000000003 407.77553 414.27118 398.95207 L 442.97612000000004 382.87777 L 443.20912000000004 336.59751 L 443.36412 290.31725 L 416.52217 275.36422 C 401.7042 267.1398 389.36922000000004 260.33657 388.98123000000004 260.1859 C 388.59323000000006 260.03644 388.20523000000003 280.29867 388.12723000000005 306.0924 L 387.89423000000005 352.29782 L 326.9163500000001 386.31597 C 293.4014200000001 405.08217 250.19150000000008 429.15659 230.95054000000007 439.84883 C 211.71158000000008 450.54108 196.03961000000007 459.51201000000003 196.11761000000007 459.88676000000004 C 196.27261000000007 460.40998 249.33750000000006 490.24118000000004 250.26750000000007 490.31602000000004 C 250.50050000000007 490.31602000000004 281.06644000000006 473.34376000000003 318.14936000000006 452.63414000000006 z M 167.49168 414.35453 C 182.07665 406.27958 194.25663 399.4015 194.56663 399.10158 C 194.95463 398.80266 176.49067 388.03658 153.68171 375.17663 L 112.09979000000001 351.84972999999997 L 111.94479000000001 244.71026999999998 L 111.71179000000001 137.57081 L 84.55884 152.74912999999998 L 57.40589 167.92744999999996 L 57.40589 275.36708 L 57.40589 382.80670999999995 L 98.13481 405.83368999999993 C 120.55477 418.46933999999993 139.32973 428.8606699999999 139.94973 428.9366099999999 C 140.57073 429.0114499999999 152.9837 422.43229999999994 167.49067 414.3573399999999 z M 267.33748 358.20441 C 276.02646000000004 353.26995 294.25743 343.10092 307.8344 335.55019 L 332.42635 321.86789 L 332.27135000000004 275.13925 L 332.03835000000004 228.48523 L 291.30943 205.75617 C 268.88947 193.26998 250.11451000000002 183.17678 249.57251000000002 183.40087 C 248.25451 183.84946 174.01066000000003 225.19504999999998 170.05467000000002 227.58805 L 167.18368 229.382 L 167.33868 275.51259 L 167.57168000000001 321.64318 L 208.6896 344.67015999999995 C 231.34255000000002 357.30580999999995 250.19352 367.54867999999993 250.65952000000001 367.39921999999996 C 251.12552000000002 367.24976 258.5725 363.06281999999993 267.33849000000004 358.203 z M 443.36412 198.13213 L 443.36412 167.62824999999998 L 390.06723 137.79603999999998 C 360.66528999999997 121.42282999999998 317.22038 97.04828999999998 293.48042 83.81457999999998 L 250.19051 59.59069999999998 L 208.91759 82.61767999999998 L 167.56767 105.72059999999998 L 167.33467 136.14986 C 167.25666999999999 155.66358 167.41267 166.57912 167.95567 166.57912 C 168.34367 166.57912 187.03963 156.33646 209.45959 143.85005999999998 L 250.26650999999998 121.12099999999998 L 264.77348 129.19594999999998 C 272.76446 133.60718999999997 316.13138000000004 157.83104999999998 361.12729 182.95310999999998 C 406.1232 208.07516999999999 442.97313 228.63531999999998 443.12813 228.63531999999998 C 443.28312999999997 228.63531999999998 443.36113 214.87839999999997 443.36113 198.13143999999997 z" stroke-linecap="round" />
</g>
</svg>