<?xml version="1.0" encoding="UTF-8"?>
<svg width="19" height="19" viewBox="0 0 19 19" fill="none" xmlns="http://www.w3.org/2000/svg">
<path d="M14 8.19876L11 5.19876M2.375 16.8238L4.91328 16.5417C5.22339 16.5073 5.37845 16.49 5.52338 16.4431C5.65197 16.4015 5.77434 16.3427 5.88717 16.2683C6.01434 16.1844 6.12466 16.0741 6.34529 15.8535L16.25 5.94876C17.0784 5.12033 17.0784 3.77719 16.25 2.94876C15.4216 2.12033 14.0784 2.12033 13.25 2.94876L3.3453 12.8535C3.12466 13.0741 3.01434 13.1844 2.93048 13.3116C2.85607 13.4244 2.79726 13.5468 2.75564 13.6754C2.70872 13.8203 2.69149 13.9754 2.65703 14.2855L2.375 16.8238Z" stroke="white" stroke-width="1.5" stroke-linecap="round" stroke-linejoin="round"/>
</svg>