<?xml version="1.0" encoding="UTF-8"?>
<svg width="19" height="19" viewBox="0 0 19 19" fill="none" xmlns="http://www.w3.org/2000/svg">
<path d="M9.49982 7.44875V10.4488M9.49982 13.4488H9.50732M8.4613 3.61754L2.29264 14.2725C1.95049 14.8635 1.77941 15.159 1.80469 15.4015C1.82675 15.6131 1.93758 15.8053 2.10959 15.9304C2.30681 16.0738 2.64826 16.0738 3.33115 16.0738H15.6685C16.3514 16.0738 16.6928 16.0738 16.89 15.9304C17.0621 15.8053 17.1729 15.6131 17.1949 15.4015C17.2202 15.159 17.0491 14.8635 16.707 14.2725L10.5383 3.61754C10.1974 3.02867 10.0269 2.73423 9.80454 2.63534C9.61055 2.54908 9.38908 2.54908 9.19509 2.63534C8.97269 2.73423 8.80223 3.02867 8.4613 3.61754Z" stroke="white" stroke-width="1.5" stroke-linecap="round" stroke-linejoin="round"/>
</svg>