<?xml version="1.0" encoding="UTF-8"?>
<svg width="19" height="19" viewBox="0 0 19 19" fill="none" xmlns="http://www.w3.org/2000/svg">
<path d="M10.25 5.94876L9.41334 4.27545C9.17255 3.79386 9.05215 3.55306 8.87253 3.37713C8.71368 3.22156 8.52224 3.10324 8.31206 3.03074C8.07437 2.94876 7.80516 2.94876 7.26672 2.94876H4.4C3.55992 2.94876 3.13988 2.94876 2.81901 3.11225C2.53677 3.25606 2.3073 3.48553 2.16349 3.76778C2 4.08864 2 4.50868 2 5.34876V5.94876M2 5.94876H13.4C14.6601 5.94876 15.2902 5.94876 15.7715 6.194C16.1948 6.40971 16.539 6.75392 16.7548 7.17728C17 7.65858 17 8.28864 17 9.54876V12.8488C17 14.1089 17 14.7389 16.7548 15.2202C16.539 15.6436 16.1948 15.9878 15.7715 16.2035C15.2902 16.4488 14.6601 16.4488 13.4 16.4488H5.6C4.33988 16.4488 3.70982 16.4488 3.22852 16.2035C2.80516 15.9878 2.46095 15.6436 2.24524 15.2202C2 14.7389 2 14.1089 2 12.8488V5.94876ZM7.88757 9.51294C8.01972 9.13728 8.28055 8.82051 8.62387 8.61874C8.96719 8.41697 9.37085 8.34321 9.76334 8.41054C10.1558 8.47786 10.5118 8.68192 10.7683 8.98657C11.0247 9.29121 11.1651 9.6768 11.1645 10.075C11.1645 11.1992 9.47826 11.7613 9.47826 11.7613M9.5 14.0113H9.5075" stroke="white" stroke-width="1.5" stroke-linecap="round" stroke-linejoin="round"/>
</svg>